<?xml version="1.0" encoding="UTF-8"?>
<!DOCTYPE svg PUBLIC "-//W3C//DTD SVG 1.1//EN" "http://www.w3.org/Graphics/SVG/1.1/DTD/svg11.dtd">
<svg xmlns="http://www.w3.org/2000/svg" version="1.1" width="488px" height="492px" style="shape-rendering:geometricPrecision; text-rendering:geometricPrecision; image-rendering:optimizeQuality; fill-rule:evenodd; clip-rule:evenodd" xmlns:xlink="http://www.w3.org/1999/xlink">
<g><path style="opacity:0.314" fill="#575759" d="M 487.5,23.5 C 487.5,104.167 487.5,184.833 487.5,265.5C 486.186,263.085 485.519,260.252 485.5,257C 485.965,211.677 485.965,166.344 485.5,121C 485.5,88.1597 486.167,55.6597 487.5,23.5 Z"/></g>
<g><path style="opacity:0.246" fill="#6f6e70" d="M 385.5,32.5 C 268.167,32.5 150.833,32.5 33.5,32.5C 33.5,103.167 33.5,173.833 33.5,244.5C 32.5009,182.669 32.1676,120.669 32.5,58.5C 32.7859,50.6232 32.4525,42.7898 31.5,35C 31.7881,31.8965 33.4547,30.3965 36.5,30.5C 152.986,31.1609 269.32,31.8276 385.5,32.5 Z"/></g>
<g><path style="opacity:0.998" fill="#fdfdfd" d="M 452.5,86.5 C 452.5,139.167 452.5,191.833 452.5,244.5C 452.5,313.833 452.5,383.167 452.5,452.5C 331.5,452.5 210.5,452.5 89.5,452.5C 88.448,452.649 87.448,452.483 86.5,452C 68.6588,434.326 50.9921,416.492 33.5,398.5C 33.5,347.167 33.5,295.833 33.5,244.5C 33.5,173.833 33.5,103.167 33.5,32.5C 150.833,32.5 268.167,32.5 385.5,32.5C 389.767,32.797 393.934,32.4637 398,31.5C 416.368,49.7014 434.535,68.0347 452.5,86.5 Z M 67.5,60.5 C 164.992,60.5918 262.658,60.5918 360.5,60.5C 362.607,61.4682 364.941,61.8016 367.5,61.5C 367.167,161.001 367.501,260.335 368.5,359.5C 368.5,360.833 368.5,362.167 368.5,363.5C 367.566,364.568 367.232,365.901 367.5,367.5C 364.287,367.19 361.287,367.523 358.5,368.5C 262.085,368.485 165.752,368.485 69.5,368.5C 67.3926,367.532 65.0593,367.198 62.5,367.5C 62.5,265.5 62.5,163.5 62.5,61.5C 64.4147,61.7845 66.0813,61.4511 67.5,60.5 Z M 213.5,229.5 C 211.167,231.167 209.167,233.167 207.5,235.5C 197.445,244.553 188.112,254.22 179.5,264.5C 178.5,264.833 177.833,265.5 177.5,266.5C 171.833,271.5 166.5,276.833 161.5,282.5C 158.369,285.129 155.369,287.962 152.5,291C 143.5,291.667 134.5,291.667 125.5,291C 124.027,290.29 123.36,289.124 123.5,287.5C 124.674,286.486 125.34,285.153 125.5,283.5C 126.906,283.027 127.573,282.027 127.5,280.5C 129.25,279.341 130.25,277.674 130.5,275.5C 131.338,275.158 131.672,274.492 131.5,273.5C 132.906,273.027 133.573,272.027 133.5,270.5C 134.338,270.158 134.672,269.492 134.5,268.5C 135.906,268.027 136.573,267.027 136.5,265.5C 138.25,264.341 139.25,262.674 139.5,260.5C 142.502,257.839 144.502,254.505 145.5,250.5C 147.25,249.341 148.25,247.674 148.5,245.5C 150.25,244.341 151.25,242.674 151.5,240.5C 153.25,239.341 154.25,237.674 154.5,235.5C 155.338,235.158 155.672,234.492 155.5,233.5C 156.906,233.027 157.573,232.027 157.5,230.5C 158.338,230.158 158.672,229.492 158.5,228.5C 159.906,228.027 160.573,227.027 160.5,225.5C 161.338,225.158 161.672,224.492 161.5,223.5C 162.906,223.027 163.573,222.027 163.5,220.5C 164.338,220.158 164.672,219.492 164.5,218.5C 165.906,218.027 166.573,217.027 166.5,215.5C 167.338,215.158 167.672,214.492 167.5,213.5C 168.906,213.027 169.573,212.027 169.5,210.5C 170.338,210.158 170.672,209.492 170.5,208.5C 172.25,207.341 173.25,205.674 173.5,203.5C 175.25,202.341 176.25,200.674 176.5,198.5C 178.25,197.341 179.25,195.674 179.5,193.5C 181.25,192.341 182.25,190.674 182.5,188.5C 183.338,188.158 183.672,187.492 183.5,186.5C 184.906,186.027 185.573,185.027 185.5,183.5C 187.25,182.341 188.25,180.674 188.5,178.5C 190.25,177.341 191.25,175.674 191.5,173.5C 193.25,172.341 194.25,170.674 194.5,168.5C 195.338,168.158 195.672,167.492 195.5,166.5C 196.906,166.027 197.573,165.027 197.5,163.5C 199.25,162.341 200.25,160.674 200.5,158.5C 202.25,157.341 203.25,155.674 203.5,153.5C 205.25,152.341 206.25,150.674 206.5,148.5C 207.338,148.158 207.672,147.492 207.5,146.5C 208.906,146.027 209.573,145.027 209.5,143.5C 213.88,140.915 217.046,142.248 219,147.5C 219.789,174.186 219.622,200.853 218.5,227.5C 216.447,227.402 214.78,228.069 213.5,229.5 Z"/></g>
<g><path style="opacity:0.238" fill="#323134" d="M 452.5,86.5 C 454.402,201.83 454.735,317.164 453.5,432.5C 453.832,369.664 453.499,306.998 452.5,244.5C 452.5,191.833 452.5,139.167 452.5,86.5 Z"/></g>
<g><path style="opacity:0.095" fill="#2c2b2e" d="M 32.5,58.5 C 32.1676,120.669 32.5009,182.669 33.5,244.5C 33.5,295.833 33.5,347.167 33.5,398.5C 31.6867,285.169 31.3534,171.836 32.5,58.5 Z"/></g>
<g><path style="opacity:0.185" fill="#7e7e80" d="M 61.5,60.5 C 61.5,163.167 61.5,265.833 61.5,368.5C 64.1667,368.5 66.8333,368.5 69.5,368.5C 165.752,368.485 262.085,368.485 358.5,368.5C 361.833,368.5 365.167,368.5 368.5,368.5C 368.5,366.833 368.5,365.167 368.5,363.5C 368.5,362.167 368.5,360.833 368.5,359.5C 368.5,259.833 368.5,160.167 368.5,60.5C 369.499,163.332 369.833,266.332 369.5,369.5C 266.5,369.5 163.5,369.5 60.5,369.5C 60.1672,266.332 60.5005,163.332 61.5,60.5 Z M 67.5,60.5 C 164.992,60.5918 262.658,60.5918 360.5,60.5C 362.607,61.4682 364.941,61.8016 367.5,61.5C 367.167,161.001 367.501,260.335 368.5,359.5C 368.5,360.833 368.5,362.167 368.5,363.5C 367.566,364.568 367.232,365.901 367.5,367.5C 364.287,367.19 361.287,367.523 358.5,368.5C 262.085,368.485 165.752,368.485 69.5,368.5C 67.3926,367.532 65.0593,367.198 62.5,367.5C 62.5,265.5 62.5,163.5 62.5,61.5C 64.4147,61.7845 66.0813,61.4511 67.5,60.5 Z M 213.5,229.5 C 211.167,231.167 209.167,233.167 207.5,235.5C 197.445,244.553 188.112,254.22 179.5,264.5C 178.5,264.833 177.833,265.5 177.5,266.5C 171.833,271.5 166.5,276.833 161.5,282.5C 158.369,285.129 155.369,287.962 152.5,291C 143.5,291.667 134.5,291.667 125.5,291C 124.027,290.29 123.36,289.124 123.5,287.5C 124.674,286.486 125.34,285.153 125.5,283.5C 126.906,283.027 127.573,282.027 127.5,280.5C 129.25,279.341 130.25,277.674 130.5,275.5C 131.338,275.158 131.672,274.492 131.5,273.5C 132.906,273.027 133.573,272.027 133.5,270.5C 134.338,270.158 134.672,269.492 134.5,268.5C 135.906,268.027 136.573,267.027 136.5,265.5C 138.25,264.341 139.25,262.674 139.5,260.5C 142.502,257.839 144.502,254.505 145.5,250.5C 147.25,249.341 148.25,247.674 148.5,245.5C 150.25,244.341 151.25,242.674 151.5,240.5C 153.25,239.341 154.25,237.674 154.5,235.5C 155.338,235.158 155.672,234.492 155.5,233.5C 156.906,233.027 157.573,232.027 157.5,230.5C 158.338,230.158 158.672,229.492 158.5,228.5C 159.906,228.027 160.573,227.027 160.5,225.5C 161.338,225.158 161.672,224.492 161.5,223.5C 162.906,223.027 163.573,222.027 163.5,220.5C 164.338,220.158 164.672,219.492 164.5,218.5C 165.906,218.027 166.573,217.027 166.5,215.5C 167.338,215.158 167.672,214.492 167.5,213.5C 168.906,213.027 169.573,212.027 169.5,210.5C 170.338,210.158 170.672,209.492 170.5,208.5C 172.25,207.341 173.25,205.674 173.5,203.5C 175.25,202.341 176.25,200.674 176.5,198.5C 178.25,197.341 179.25,195.674 179.5,193.5C 181.25,192.341 182.25,190.674 182.5,188.5C 183.338,188.158 183.672,187.492 183.5,186.5C 184.906,186.027 185.573,185.027 185.5,183.5C 187.25,182.341 188.25,180.674 188.5,178.5C 190.25,177.341 191.25,175.674 191.5,173.5C 193.25,172.341 194.25,170.674 194.5,168.5C 195.338,168.158 195.672,167.492 195.5,166.5C 196.906,166.027 197.573,165.027 197.5,163.5C 199.25,162.341 200.25,160.674 200.5,158.5C 202.25,157.341 203.25,155.674 203.5,153.5C 205.25,152.341 206.25,150.674 206.5,148.5C 207.338,148.158 207.672,147.492 207.5,146.5C 208.906,146.027 209.573,145.027 209.5,143.5C 213.88,140.915 217.046,142.248 219,147.5C 219.789,174.186 219.622,200.853 218.5,227.5C 216.447,227.402 214.78,228.069 213.5,229.5 Z"/></g>
<g><path style="opacity:0.022" fill="#09090c" d="M 368.5,363.5 C 368.5,365.167 368.5,366.833 368.5,368.5C 365.167,368.5 361.833,368.5 358.5,368.5C 361.287,367.523 364.287,367.19 367.5,367.5C 367.232,365.901 367.566,364.568 368.5,363.5 Z"/></g>
<g><path style="opacity:0.021" fill="#09090c" d="M 360.5,60.5 C 363.167,60.5 365.833,60.5 368.5,60.5C 368.5,160.167 368.5,259.833 368.5,359.5C 367.501,260.335 367.167,161.001 367.5,61.5C 364.941,61.8016 362.607,61.4682 360.5,60.5 Z"/></g>
<g><path style="opacity:0.023" fill="#202022" d="M 91.5,296.5 C 129.167,296.5 166.833,296.5 204.5,296.5C 166.83,298.922 129.164,298.922 91.5,296.5 Z"/></g>
<g><path style="opacity:0.225" fill="#4c4b4e" d="M 335.5,296.5 C 341.5,296.5 347.5,296.5 353.5,296.5C 351.863,297.38 350.03,298.046 348,298.5C 343.684,297.92 339.517,297.253 335.5,296.5 Z"/></g>
<g><path style="opacity:0.188" fill="#515053" d="M 259.5,286.5 C 262.73,289.02 263.897,292.354 263,296.5C 262.25,297.126 261.416,297.626 260.5,298C 247.68,297.98 235.013,297.48 222.5,296.5C 235.5,296.5 248.5,296.5 261.5,296.5C 261.845,292.885 261.178,289.552 259.5,286.5 Z"/></g>
<g><path style="opacity:0.227" fill="#3e3e41" d="M 75.5,284.5 C 73.8568,288.3 73.1901,292.3 73.5,296.5C 72.661,295.359 71.9943,294.026 71.5,292.5C 71.95,289.286 73.2834,286.619 75.5,284.5 Z"/></g>
<g><path style="opacity:0.059" fill="#202022" d="M 78.5,279.5 C 78.2503,281.674 77.2503,283.341 75.5,284.5C 75.7497,282.326 76.7497,280.659 78.5,279.5 Z"/></g>
<g><path style="opacity:0.071" fill="#1e1d20" d="M 81.5,274.5 C 81.573,276.027 80.9063,277.027 79.5,277.5C 79.427,275.973 80.0937,274.973 81.5,274.5 Z"/></g>
<g><path style="opacity:0.067" fill="#212123" d="M 84.5,269.5 C 84.573,271.027 83.9063,272.027 82.5,272.5C 82.427,270.973 83.0937,269.973 84.5,269.5 Z"/></g>
<g><path style="opacity:0.078" fill="#252428" d="M 87.5,264.5 C 87.573,266.027 86.9063,267.027 85.5,267.5C 85.427,265.973 86.0937,264.973 87.5,264.5 Z"/></g>
<g><path style="opacity:0.071" fill="#2a292c" d="M 90.5,259.5 C 90.573,261.027 89.9063,262.027 88.5,262.5C 88.427,260.973 89.0937,259.973 90.5,259.5 Z"/></g>
<g><path style="opacity:0.051" fill="#1c1c1f" d="M 94.5,252.5 C 94.573,254.027 93.9063,255.027 92.5,255.5C 92.427,253.973 93.0937,252.973 94.5,252.5 Z"/></g>
<g><path style="opacity:0.067" fill="#201f22" d="M 97.5,247.5 C 97.573,249.027 96.9063,250.027 95.5,250.5C 95.427,248.973 96.0937,247.973 97.5,247.5 Z"/></g>
<g><path style="opacity:0.063" fill="#242326" d="M 100.5,242.5 C 100.573,244.027 99.9063,245.027 98.5,245.5C 98.427,243.973 99.0937,242.973 100.5,242.5 Z"/></g>
<g><path style="opacity:0.063" fill="#1e1e20" d="M 104.5,235.5 C 104.25,237.674 103.25,239.341 101.5,240.5C 101.75,238.326 102.75,236.659 104.5,235.5 Z"/></g>
<g><path style="opacity:0.067" fill="#212123" d="M 107.5,230.5 C 107.25,232.674 106.25,234.341 104.5,235.5C 104.75,233.326 105.75,231.659 107.5,230.5 Z"/></g>
<g><path style="opacity:0.188" fill="#4e4d50" d="M 354.5,154.5 C 354.833,154.5 355.167,154.5 355.5,154.5C 356.694,201.669 356.361,248.669 354.5,295.5C 354.5,248.5 354.5,201.5 354.5,154.5 Z"/></g>
<g><path style="opacity:0.067" fill="#1f1e21" d="M 110.5,225.5 C 110.573,227.027 109.906,228.027 108.5,228.5C 108.427,226.973 109.094,225.973 110.5,225.5 Z"/></g>
<g><path style="opacity:0.078" fill="#202022" d="M 114.5,218.5 C 114.25,220.674 113.25,222.341 111.5,223.5C 111.75,221.326 112.75,219.659 114.5,218.5 Z"/></g>
<g><path style="opacity:0.086" fill="#242326" d="M 117.5,213.5 C 117.25,215.674 116.25,217.341 114.5,218.5C 114.75,216.326 115.75,214.659 117.5,213.5 Z"/></g>
<g><path style="opacity:0.063" fill="#232325" d="M 121.5,206.5 C 120.921,209.331 119.588,211.664 117.5,213.5C 118.079,210.669 119.412,208.336 121.5,206.5 Z"/></g>
<g><path style="opacity:0.078" fill="#1e1e20" d="M 123.5,203.5 C 123.573,205.027 122.906,206.027 121.5,206.5C 121.427,204.973 122.094,203.973 123.5,203.5 Z"/></g>
<g><path style="opacity:0.063" fill="#1f1f21" d="M 127.5,196.5 C 127.25,198.674 126.25,200.341 124.5,201.5C 124.75,199.326 125.75,197.659 127.5,196.5 Z"/></g>
<g><path style="opacity:0.09" fill="#232225" d="M 130.5,191.5 C 130.25,193.674 129.25,195.341 127.5,196.5C 127.75,194.326 128.75,192.659 130.5,191.5 Z"/></g>
<g><path style="opacity:0.071" fill="#201f22" d="M 133.5,186.5 C 133.25,188.674 132.25,190.341 130.5,191.5C 130.75,189.326 131.75,187.659 133.5,186.5 Z"/></g>
<g><path style="opacity:0.047" fill="#252527" d="M 92.5,179.5 C 89.7719,183.737 86.4385,187.571 82.5,191C 79.7058,191.972 77.7058,191.139 76.5,188.5C 78.144,189.366 79.8107,189.866 81.5,190C 85.0357,186.296 88.7024,182.796 92.5,179.5 Z"/></g>
<g><path style="opacity:0.034" fill="#1a191b" d="M 77.5,159.5 C 76.9802,168.512 76.3135,177.512 75.5,186.5C 74.8418,185.207 74.5085,183.707 74.5,182C 75.1843,174.312 76.1843,166.812 77.5,159.5 Z"/></g>
<g><path style="opacity:0.02" fill="#19191b" d="M 319.5,129.5 C 319.216,131.415 319.549,133.081 320.5,134.5C 320.629,136.216 320.962,137.883 321.5,139.5C 320.034,138.653 319.2,137.32 319,135.5C 318.211,133.288 318.378,131.288 319.5,129.5 Z"/></g>
<g><path style="opacity:0.034" fill="#252427" d="M 80.5,133.5 C 80.1251,139.009 79.4584,144.342 78.5,149.5C 78.073,143.886 78.7396,138.553 80.5,133.5 Z"/></g>
<g><path style="opacity:0.047" fill="#262528" d="M 82.5,130.5 C 82.573,132.027 81.9063,133.027 80.5,133.5C 80.427,131.973 81.0937,130.973 82.5,130.5 Z"/></g>
<g><path style="opacity:0.995" fill="#f8f8f8" d="M 86.5,130.5 C 99.8333,130.5 113.167,130.5 126.5,130.5C 170.833,130.5 215.167,130.5 259.5,130.5C 262.942,129.214 265.608,130.214 267.5,133.5C 268.833,135.5 270.5,137.167 272.5,138.5C 273.419,141.089 275.086,143.089 277.5,144.5C 277.738,146.404 278.738,147.738 280.5,148.5C 281.08,150.749 282.413,152.415 284.5,153.5C 285.08,155.749 286.413,157.415 288.5,158.5C 289.419,161.089 291.086,163.089 293.5,164.5C 294.08,166.749 295.413,168.415 297.5,169.5C 298.419,172.089 300.086,174.089 302.5,175.5C 303.08,177.749 304.413,179.415 306.5,180.5C 307.419,183.089 309.086,185.089 311.5,186.5C 312.08,188.749 313.413,190.415 315.5,191.5C 316.419,194.089 318.086,196.089 320.5,197.5C 321.419,200.089 323.086,202.089 325.5,203.5C 326.419,206.089 328.086,208.089 330.5,209.5C 331.757,212.427 333.757,214.761 336.5,216.5C 337.419,219.089 339.086,221.089 341.5,222.5C 344.094,226.272 346.927,229.939 350,233.5C 350.667,214.167 350.667,194.833 350,175.5C 348.618,172.957 346.785,170.957 344.5,169.5C 344.262,167.596 343.262,166.262 341.5,165.5C 340.864,163.205 339.531,161.539 337.5,160.5C 337.262,158.596 336.262,157.262 334.5,156.5C 334.262,154.596 333.262,153.262 331.5,152.5C 329.984,149.467 327.984,146.8 325.5,144.5C 324.92,142.251 323.587,140.585 321.5,139.5C 320.962,137.883 320.629,136.216 320.5,134.5C 320.5,133.167 320.5,131.833 320.5,130.5C 327.167,130.5 333.833,130.5 340.5,130.5C 344.514,130.334 348.514,130.501 352.5,131C 353,131.5 353.5,132 354,132.5C 354.5,139.826 354.666,147.159 354.5,154.5C 354.5,201.5 354.5,248.5 354.5,295.5C 354.5,296.167 354.167,296.5 353.5,296.5C 347.5,296.5 341.5,296.5 335.5,296.5C 334.738,294.738 333.404,293.738 331.5,293.5C 329.833,292.5 328.5,291.167 327.5,289.5C 327.446,287.368 326.446,286.035 324.5,285.5C 324.573,283.973 323.906,282.973 322.5,282.5C 321.833,282.5 321.5,282.167 321.5,281.5C 321.573,279.973 320.906,278.973 319.5,278.5C 318.833,278.5 318.5,278.167 318.5,277.5C 318.573,275.973 317.906,274.973 316.5,274.5C 315.833,274.5 315.5,274.167 315.5,273.5C 315.573,271.973 314.906,270.973 313.5,270.5C 312.833,270.5 312.5,270.167 312.5,269.5C 311.864,267.205 310.531,265.539 308.5,264.5C 308.446,262.368 307.446,261.035 305.5,260.5C 305.573,258.973 304.906,257.973 303.5,257.5C 302.833,257.5 302.5,257.167 302.5,256.5C 302.573,254.973 301.906,253.973 300.5,253.5C 299.833,253.5 299.5,253.167 299.5,252.5C 299.262,250.596 298.262,249.262 296.5,248.5C 296.573,246.973 295.906,245.973 294.5,245.5C 293.833,245.5 293.5,245.167 293.5,244.5C 292.864,242.205 291.531,240.539 289.5,239.5C 289.446,237.368 288.446,236.035 286.5,235.5C 286.573,233.973 285.906,232.973 284.5,232.5C 283.833,232.5 283.5,232.167 283.5,231.5C 283.573,229.973 282.906,228.973 281.5,228.5C 280.833,228.5 280.5,228.167 280.5,227.5C 280.262,225.596 279.262,224.262 277.5,223.5C 276.864,221.205 275.531,219.539 273.5,218.5C 273.573,216.973 272.906,215.973 271.5,215.5C 270.833,215.5 270.5,215.167 270.5,214.5C 270.573,212.973 269.906,211.973 268.5,211.5C 267.833,211.5 267.5,211.167 267.5,210.5C 266.864,208.205 265.531,206.539 263.5,205.5C 263.573,203.973 262.906,202.973 261.5,202.5C 260.833,202.5 260.5,202.167 260.5,201.5C 260.262,199.596 259.262,198.262 257.5,197.5C 256.864,195.205 255.531,193.539 253.5,192.5C 251.889,188.949 249.556,185.949 246.5,183.5C 244.984,180.467 242.984,177.8 240.5,175.5C 238.869,171.879 236.535,168.879 233.5,166.5C 231.515,162.544 229.015,158.878 226,155.5C 225.667,156.167 225.333,156.833 225,157.5C 224.229,186.18 224.563,214.846 226,243.5C 227.039,244.71 228.206,245.71 229.5,246.5C 229.427,248.027 230.094,249.027 231.5,249.5C 232.08,251.749 233.413,253.415 235.5,254.5C 235.738,256.404 236.738,257.738 238.5,258.5C 238.738,260.404 239.738,261.738 241.5,262.5C 241.738,264.404 242.738,265.738 244.5,266.5C 244.738,268.404 245.738,269.738 247.5,270.5C 247.738,272.404 248.738,273.738 250.5,274.5C 250.738,276.404 251.738,277.738 253.5,278.5C 253.738,280.404 254.738,281.738 256.5,282.5C 256.738,284.404 257.738,285.738 259.5,286.5C 261.178,289.552 261.845,292.885 261.5,296.5C 248.5,296.5 235.5,296.5 222.5,296.5C 221.833,296.5 221.5,296.167 221.5,295.5C 221.667,277.83 221.5,260.164 221,242.5C 220.667,241.833 220.333,241.167 220,240.5C 218.872,242.345 218.372,244.345 218.5,246.5C 217.518,249.763 216.851,253.097 216.5,256.5C 214.741,265.755 212.407,274.755 209.5,283.5C 208.055,286.937 207.055,290.603 206.5,294.5C 206.167,295.5 205.5,296.167 204.5,296.5C 166.833,296.5 129.167,296.5 91.5,296.5C 85.4382,297.046 79.4382,297.046 73.5,296.5C 73.1901,292.3 73.8568,288.3 75.5,284.5C 77.2503,283.341 78.2503,281.674 78.5,279.5C 78.3284,278.508 78.6618,277.842 79.5,277.5C 80.9063,277.027 81.573,276.027 81.5,274.5C 81.3284,273.508 81.6618,272.842 82.5,272.5C 83.9063,272.027 84.573,271.027 84.5,269.5C 84.3284,268.508 84.6618,267.842 85.5,267.5C 86.9063,267.027 87.573,266.027 87.5,264.5C 87.3284,263.508 87.6618,262.842 88.5,262.5C 89.9063,262.027 90.573,261.027 90.5,259.5C 90.6596,257.847 91.3263,256.514 92.5,255.5C 93.9063,255.027 94.573,254.027 94.5,252.5C 94.3284,251.508 94.6618,250.842 95.5,250.5C 96.9063,250.027 97.573,249.027 97.5,247.5C 97.3284,246.508 97.6618,245.842 98.5,245.5C 99.9063,245.027 100.573,244.027 100.5,242.5C 100.328,241.508 100.662,240.842 101.5,240.5C 103.25,239.341 104.25,237.674 104.5,235.5C 106.25,234.341 107.25,232.674 107.5,230.5C 107.328,229.508 107.662,228.842 108.5,228.5C 109.906,228.027 110.573,227.027 110.5,225.5C 110.328,224.508 110.662,223.842 111.5,223.5C 113.25,222.341 114.25,220.674 114.5,218.5C 116.25,217.341 117.25,215.674 117.5,213.5C 119.588,211.664 120.921,209.331 121.5,206.5C 122.906,206.027 123.573,205.027 123.5,203.5C 123.328,202.508 123.662,201.842 124.5,201.5C 126.25,200.341 127.25,198.674 127.5,196.5C 129.25,195.341 130.25,193.674 130.5,191.5C 132.25,190.341 133.25,188.674 133.5,186.5C 135.588,184.664 136.921,182.331 137.5,179.5C 142.622,172.693 146.956,165.36 150.5,157.5C 152.25,156.341 153.25,154.674 153.5,152.5C 155.25,151.341 156.25,149.674 156.5,147.5C 158.25,146.341 159.25,144.674 159.5,142.5C 161.39,140.41 163.057,138.077 164.5,135.5C 153.843,132.867 143.177,132.867 132.5,135.5C 129.406,138.583 126.739,141.916 124.5,145.5C 122.5,148.167 120.167,150.5 117.5,152.5C 115.413,153.585 114.08,155.251 113.5,157.5C 111.833,159.833 109.833,161.833 107.5,163.5C 104.427,165.569 102.094,168.236 100.5,171.5C 98.1667,174.5 95.5,177.167 92.5,179.5C 88.7024,182.796 85.0357,186.296 81.5,190C 79.8107,189.866 78.144,189.366 76.5,188.5C 75.6618,188.158 75.3284,187.492 75.5,186.5C 76.3135,177.512 76.9802,168.512 77.5,159.5C 77.1872,155.958 77.5206,152.625 78.5,149.5C 79.4584,144.342 80.1251,139.009 80.5,133.5C 81.9063,133.027 82.573,132.027 82.5,130.5C 83.6316,129.646 84.965,129.646 86.5,130.5 Z M 213.5,229.5 C 211.167,231.167 209.167,233.167 207.5,235.5C 197.445,244.553 188.112,254.22 179.5,264.5C 178.5,264.833 177.833,265.5 177.5,266.5C 171.833,271.5 166.5,276.833 161.5,282.5C 158.369,285.129 155.369,287.962 152.5,291C 143.5,291.667 134.5,291.667 125.5,291C 124.027,290.29 123.36,289.124 123.5,287.5C 124.674,286.486 125.34,285.153 125.5,283.5C 126.906,283.027 127.573,282.027 127.5,280.5C 129.25,279.341 130.25,277.674 130.5,275.5C 131.338,275.158 131.672,274.492 131.5,273.5C 132.906,273.027 133.573,272.027 133.5,270.5C 134.338,270.158 134.672,269.492 134.5,268.5C 135.906,268.027 136.573,267.027 136.5,265.5C 138.25,264.341 139.25,262.674 139.5,260.5C 142.502,257.839 144.502,254.505 145.5,250.5C 147.25,249.341 148.25,247.674 148.5,245.5C 150.25,244.341 151.25,242.674 151.5,240.5C 153.25,239.341 154.25,237.674 154.5,235.5C 155.338,235.158 155.672,234.492 155.5,233.5C 156.906,233.027 157.573,232.027 157.5,230.5C 158.338,230.158 158.672,229.492 158.5,228.5C 159.906,228.027 160.573,227.027 160.5,225.5C 161.338,225.158 161.672,224.492 161.5,223.5C 162.906,223.027 163.573,222.027 163.5,220.5C 164.338,220.158 164.672,219.492 164.5,218.5C 165.906,218.027 166.573,217.027 166.5,215.5C 167.338,215.158 167.672,214.492 167.5,213.5C 168.906,213.027 169.573,212.027 169.5,210.5C 170.338,210.158 170.672,209.492 170.5,208.5C 172.25,207.341 173.25,205.674 173.5,203.5C 175.25,202.341 176.25,200.674 176.5,198.5C 178.25,197.341 179.25,195.674 179.5,193.5C 181.25,192.341 182.25,190.674 182.5,188.5C 183.338,188.158 183.672,187.492 183.5,186.5C 184.906,186.027 185.573,185.027 185.5,183.5C 187.25,182.341 188.25,180.674 188.5,178.5C 190.25,177.341 191.25,175.674 191.5,173.5C 193.25,172.341 194.25,170.674 194.5,168.5C 195.338,168.158 195.672,167.492 195.5,166.5C 196.906,166.027 197.573,165.027 197.5,163.5C 199.25,162.341 200.25,160.674 200.5,158.5C 202.25,157.341 203.25,155.674 203.5,153.5C 205.25,152.341 206.25,150.674 206.5,148.5C 207.338,148.158 207.672,147.492 207.5,146.5C 208.906,146.027 209.573,145.027 209.5,143.5C 213.88,140.915 217.046,142.248 219,147.5C 219.789,174.186 219.622,200.853 218.5,227.5C 216.447,227.402 214.78,228.069 213.5,229.5 Z"/></g>
<g><path style="opacity:0.596" fill="#6f6e70" d="M 331.5,293.5 C 333.404,293.738 334.738,294.738 335.5,296.5C 333.596,296.262 332.262,295.262 331.5,293.5 Z"/></g>
<g><path style="opacity:0.051" fill="#171719" d="M 161.5,282.5 C 161.5,282.833 161.5,283.167 161.5,283.5C 159.038,286.464 156.371,289.297 153.5,292C 142.485,292.832 131.485,292.666 120.5,291.5C 121.035,289.739 122.035,288.406 123.5,287.5C 123.36,289.124 124.027,290.29 125.5,291C 134.5,291.667 143.5,291.667 152.5,291C 155.369,287.962 158.369,285.129 161.5,282.5 Z"/></g>
<g><path style="opacity:0.004" fill="#343436" d="M 324.5,285.5 C 326.446,286.035 327.446,287.368 327.5,289.5C 326.026,288.564 325.026,287.23 324.5,285.5 Z"/></g>
<g><path style="opacity:0.031" fill="#323134" d="M 209.5,283.5 C 209.568,287.57 208.568,291.237 206.5,294.5C 207.055,290.603 208.055,286.937 209.5,283.5 Z"/></g>
<g><path style="opacity:0.169" fill="#38373a" d="M 256.5,282.5 C 258.262,283.262 259.262,284.596 259.5,286.5C 257.738,285.738 256.738,284.404 256.5,282.5 Z"/></g>
<g><path style="opacity:0.02" fill="#201f22" d="M 322.5,282.5 C 323.906,282.973 324.573,283.973 324.5,285.5C 323.094,285.027 322.427,284.027 322.5,282.5 Z"/></g>
<g><path style="opacity:0.204" fill="#4e4e50" d="M 177.5,266.5 C 172.893,272.776 167.559,278.443 161.5,283.5C 161.5,283.167 161.5,282.833 161.5,282.5C 166.5,276.833 171.833,271.5 177.5,266.5 Z"/></g>
<g><path style="opacity:0.02" fill="#282729" d="M 127.5,280.5 C 127.573,282.027 126.906,283.027 125.5,283.5C 125.427,281.973 126.094,280.973 127.5,280.5 Z"/></g>
<g><path style="opacity:0.161" fill="#3c3b3d" d="M 253.5,278.5 C 255.262,279.262 256.262,280.596 256.5,282.5C 254.738,281.738 253.738,280.404 253.5,278.5 Z"/></g>
<g><path style="opacity:0.024" fill="#222224" d="M 319.5,278.5 C 320.906,278.973 321.573,279.973 321.5,281.5C 320.094,281.027 319.427,280.027 319.5,278.5 Z"/></g>
<g><path style="opacity:0.004" fill="#201f21" d="M 130.5,275.5 C 130.25,277.674 129.25,279.341 127.5,280.5C 127.75,278.326 128.75,276.659 130.5,275.5 Z"/></g>
<g><path style="opacity:0.18" fill="#3d3c3f" d="M 250.5,274.5 C 252.262,275.262 253.262,276.596 253.5,278.5C 251.738,277.738 250.738,276.404 250.5,274.5 Z"/></g>
<g><path style="opacity:0.02" fill="#262528" d="M 316.5,274.5 C 317.906,274.973 318.573,275.973 318.5,277.5C 317.094,277.027 316.427,276.027 316.5,274.5 Z"/></g>
<g><path style="opacity:0.157" fill="#3e3e40" d="M 247.5,270.5 C 249.262,271.262 250.262,272.596 250.5,274.5C 248.738,273.738 247.738,272.404 247.5,270.5 Z"/></g>
<g><path style="opacity:0.02" fill="#29292b" d="M 313.5,270.5 C 314.906,270.973 315.573,271.973 315.5,273.5C 314.094,273.027 313.427,272.027 313.5,270.5 Z"/></g>
<g><path style="opacity:0.027" fill="#262527" d="M 133.5,270.5 C 133.573,272.027 132.906,273.027 131.5,273.5C 131.427,271.973 132.094,270.973 133.5,270.5 Z"/></g>
<g><path style="opacity:0.176" fill="#424244" d="M 244.5,266.5 C 246.262,267.262 247.262,268.596 247.5,270.5C 245.738,269.738 244.738,268.404 244.5,266.5 Z"/></g>
<g><path style="opacity:0.012" fill="#363638" d="M 308.5,264.5 C 310.531,265.539 311.864,267.205 312.5,269.5C 310.457,268.421 309.124,266.754 308.5,264.5 Z"/></g>
<g><path style="opacity:0.175" fill="#787779" d="M 221.5,295.5 C 220.423,282.676 219.756,269.676 219.5,256.5C 219.813,252.958 219.479,249.625 218.5,246.5C 218.372,244.345 218.872,242.345 220,240.5C 220.333,241.167 220.667,241.833 221,242.5C 221.5,260.164 221.667,277.83 221.5,295.5 Z"/></g>
<g><path style="opacity:0.027" fill="#252427" d="M 136.5,265.5 C 136.573,267.027 135.906,268.027 134.5,268.5C 134.427,266.973 135.094,265.973 136.5,265.5 Z"/></g>
<g><path style="opacity:0.145" fill="#3f3e41" d="M 241.5,262.5 C 243.262,263.262 244.262,264.596 244.5,266.5C 242.738,265.738 241.738,264.404 241.5,262.5 Z"/></g>
<g><path style="opacity:0.012" fill="#1d1d1f" d="M 139.5,260.5 C 139.25,262.674 138.25,264.341 136.5,265.5C 136.75,263.326 137.75,261.659 139.5,260.5 Z"/></g>
<g><path style="opacity:0.012" fill="#353437" d="M 305.5,260.5 C 307.446,261.035 308.446,262.368 308.5,264.5C 307.026,263.564 306.026,262.23 305.5,260.5 Z"/></g>
<g><path style="opacity:0.149" fill="#38373a" d="M 238.5,258.5 C 240.262,259.262 241.262,260.596 241.5,262.5C 239.738,261.738 238.738,260.404 238.5,258.5 Z"/></g>
<g><path style="opacity:0.024" fill="#212023" d="M 303.5,257.5 C 304.906,257.973 305.573,258.973 305.5,260.5C 304.094,260.027 303.427,259.027 303.5,257.5 Z"/></g>
<g><path style="opacity:0.141" fill="#313033" d="M 235.5,254.5 C 237.262,255.262 238.262,256.596 238.5,258.5C 236.738,257.738 235.738,256.404 235.5,254.5 Z"/></g>
<g><path style="opacity:0.02" fill="#232225" d="M 300.5,253.5 C 301.906,253.973 302.573,254.973 302.5,256.5C 301.094,256.027 300.427,255.027 300.5,253.5 Z"/></g>
<g><path style="opacity:0.033" fill="#18181a" d="M 145.5,250.5 C 144.502,254.505 142.502,257.839 139.5,260.5C 141,256.827 143,253.494 145.5,250.5 Z"/></g>
<g><path style="opacity:0.063" fill="#2c2c2e" d="M 231.5,249.5 C 233.587,250.585 234.92,252.251 235.5,254.5C 233.413,253.415 232.08,251.749 231.5,249.5 Z"/></g>
<g><path style="opacity:0.078" fill="#1e1e21" d="M 218.5,246.5 C 219.479,249.625 219.813,252.958 219.5,256.5C 218.778,256.082 218.278,255.416 218,254.5C 217.722,255.416 217.222,256.082 216.5,256.5C 216.851,253.097 217.518,249.763 218.5,246.5 Z"/></g>
<g><path style="opacity:0.153" fill="#3b3a3c" d="M 207.5,235.5 C 198.888,245.78 189.555,255.447 179.5,264.5C 188.112,254.22 197.445,244.553 207.5,235.5 Z"/></g>
<g><path style="opacity:0.004" fill="#202023" d="M 296.5,248.5 C 298.262,249.262 299.262,250.596 299.5,252.5C 297.738,251.738 296.738,250.404 296.5,248.5 Z"/></g>
<g><path style="opacity:0.11" fill="#2c2c2e" d="M 229.5,246.5 C 230.906,246.973 231.573,247.973 231.5,249.5C 230.094,249.027 229.427,248.027 229.5,246.5 Z"/></g>
<g><path style="opacity:0.004" fill="#1b1b1d" d="M 148.5,245.5 C 148.25,247.674 147.25,249.341 145.5,250.5C 145.75,248.326 146.75,246.659 148.5,245.5 Z"/></g>
<g><path style="opacity:0.031" fill="#2a292b" d="M 294.5,245.5 C 295.906,245.973 296.573,246.973 296.5,248.5C 295.094,248.027 294.427,247.027 294.5,245.5 Z"/></g>
<g><path style="opacity:0.004" fill="#1a1a1c" d="M 151.5,240.5 C 151.25,242.674 150.25,244.341 148.5,245.5C 148.75,243.326 149.75,241.659 151.5,240.5 Z"/></g>
<g><path style="opacity:0.004" fill="#373739" d="M 289.5,239.5 C 291.531,240.539 292.864,242.205 293.5,244.5C 291.457,243.421 290.124,241.754 289.5,239.5 Z"/></g>
<g><path style="opacity:0.008" fill="#1a191b" d="M 154.5,235.5 C 154.25,237.674 153.25,239.341 151.5,240.5C 151.75,238.326 152.75,236.659 154.5,235.5 Z"/></g>
<g><path style="opacity:0.004" fill="#353437" d="M 286.5,235.5 C 288.446,236.035 289.446,237.368 289.5,239.5C 288.026,238.564 287.026,237.23 286.5,235.5 Z"/></g>
<g><path style="opacity:0.02" fill="#222123" d="M 284.5,232.5 C 285.906,232.973 286.573,233.973 286.5,235.5C 285.094,235.027 284.427,234.027 284.5,232.5 Z"/></g>
<g><path style="opacity:0.027" fill="#1e1e20" d="M 157.5,230.5 C 157.573,232.027 156.906,233.027 155.5,233.5C 155.427,231.973 156.094,230.973 157.5,230.5 Z"/></g>
<g><path style="opacity:0.031" fill="#232325" d="M 281.5,228.5 C 282.906,228.973 283.573,229.973 283.5,231.5C 282.094,231.027 281.427,230.027 281.5,228.5 Z"/></g>
<g><path style="opacity:0.016" fill="#1e1d1f" d="M 160.5,225.5 C 160.573,227.027 159.906,228.027 158.5,228.5C 158.427,226.973 159.094,225.973 160.5,225.5 Z"/></g>
<g><path style="opacity:0.012" fill="#222124" d="M 277.5,223.5 C 279.262,224.262 280.262,225.596 280.5,227.5C 278.738,226.738 277.738,225.404 277.5,223.5 Z"/></g>
<g><path style="opacity:0.024" fill="#1d1c1e" d="M 163.5,220.5 C 163.573,222.027 162.906,223.027 161.5,223.5C 161.427,221.973 162.094,220.973 163.5,220.5 Z"/></g>
<g><path style="opacity:0.086" fill="#343336" d="M 336.5,216.5 C 338.914,217.911 340.581,219.911 341.5,222.5C 339.086,221.089 337.419,219.089 336.5,216.5 Z"/></g>
<g><path style="opacity:0.012" fill="#363638" d="M 273.5,218.5 C 275.531,219.539 276.864,221.205 277.5,223.5C 275.457,222.421 274.124,220.754 273.5,218.5 Z"/></g>
<g><path style="opacity:0.027" fill="#202022" d="M 271.5,215.5 C 272.906,215.973 273.573,216.973 273.5,218.5C 272.094,218.027 271.427,217.027 271.5,215.5 Z"/></g>
<g><path style="opacity:0.016" fill="#1c1c1d" d="M 166.5,215.5 C 166.573,217.027 165.906,218.027 164.5,218.5C 164.427,216.973 165.094,215.973 166.5,215.5 Z"/></g>
<g><path style="opacity:0.106" fill="#363639" d="M 330.5,209.5 C 333.243,211.239 335.243,213.573 336.5,216.5C 333.757,214.761 331.757,212.427 330.5,209.5 Z"/></g>
<g><path style="opacity:0.138" fill="#302f32" d="M 233.5,166.5 C 231.871,165.375 230.371,164.041 229,162.5C 227.784,164.962 227.118,167.629 227,170.5C 226.631,194.505 226.964,218.505 228,242.5C 228.791,243.745 229.291,245.078 229.5,246.5C 228.206,245.71 227.039,244.71 226,243.5C 224.563,214.846 224.229,186.18 225,157.5C 225.333,156.833 225.667,156.167 226,155.5C 229.015,158.878 231.515,162.544 233.5,166.5 Z"/></g>
<g><path style="opacity:0.035" fill="#262528" d="M 268.5,211.5 C 269.906,211.973 270.573,212.973 270.5,214.5C 269.094,214.027 268.427,213.027 268.5,211.5 Z"/></g>
<g><path style="opacity:0.024" fill="#1b1b1d" d="M 169.5,210.5 C 169.573,212.027 168.906,213.027 167.5,213.5C 167.427,211.973 168.094,210.973 169.5,210.5 Z"/></g>
<g><path style="opacity:0.078" fill="#3c3b3e" d="M 325.5,203.5 C 327.914,204.911 329.581,206.911 330.5,209.5C 328.086,208.089 326.419,206.089 325.5,203.5 Z"/></g>
<g><path style="opacity:0.012" fill="#363638" d="M 263.5,205.5 C 265.531,206.539 266.864,208.205 267.5,210.5C 265.457,209.421 264.124,207.754 263.5,205.5 Z"/></g>
<g><path style="opacity:0.008" fill="#212022" d="M 173.5,203.5 C 173.25,205.674 172.25,207.341 170.5,208.5C 170.75,206.326 171.75,204.659 173.5,203.5 Z"/></g>
<g><path style="opacity:0.016" fill="#202022" d="M 261.5,202.5 C 262.906,202.973 263.573,203.973 263.5,205.5C 262.094,205.027 261.427,204.027 261.5,202.5 Z"/></g>
<g><path style="opacity:0.098" fill="#403f42" d="M 320.5,197.5 C 322.914,198.911 324.581,200.911 325.5,203.5C 323.086,202.089 321.419,200.089 320.5,197.5 Z"/></g>
<g><path style="opacity:0.016" fill="#201f21" d="M 176.5,198.5 C 176.25,200.674 175.25,202.341 173.5,203.5C 173.75,201.326 174.75,199.659 176.5,198.5 Z"/></g>
<g><path style="opacity:0.016" fill="#212023" d="M 257.5,197.5 C 259.262,198.262 260.262,199.596 260.5,201.5C 258.738,200.738 257.738,199.404 257.5,197.5 Z"/></g>
<g><path style="opacity:0.09" fill="#454447" d="M 315.5,191.5 C 317.914,192.911 319.581,194.911 320.5,197.5C 318.086,196.089 316.419,194.089 315.5,191.5 Z"/></g>
<g><path style="opacity:0.004" fill="#1f1e20" d="M 179.5,193.5 C 179.25,195.674 178.25,197.341 176.5,198.5C 176.75,196.326 177.75,194.659 179.5,193.5 Z"/></g>
<g><path style="opacity:0.02" fill="#373639" d="M 253.5,192.5 C 255.531,193.539 256.864,195.205 257.5,197.5C 255.457,196.421 254.124,194.754 253.5,192.5 Z"/></g>
<g><path style="opacity:0.008" fill="#1e1d20" d="M 182.5,188.5 C 182.25,190.674 181.25,192.341 179.5,193.5C 179.75,191.326 180.75,189.659 182.5,188.5 Z"/></g>
<g><path style="opacity:0.122" fill="#424144" d="M 311.5,186.5 C 313.587,187.585 314.92,189.251 315.5,191.5C 313.413,190.415 312.08,188.749 311.5,186.5 Z"/></g>
<g><path style="opacity:0.029" fill="#1b1a1d" d="M 246.5,183.5 C 249.556,185.949 251.889,188.949 253.5,192.5C 250.444,190.051 248.111,187.051 246.5,183.5 Z"/></g>
<g><path style="opacity:0.125" fill="#434245" d="M 306.5,180.5 C 308.914,181.911 310.581,183.911 311.5,186.5C 309.086,185.089 307.419,183.089 306.5,180.5 Z"/></g>
<g><path style="opacity:0.024" fill="#242325" d="M 185.5,183.5 C 185.573,185.027 184.906,186.027 183.5,186.5C 183.427,184.973 184.094,183.973 185.5,183.5 Z"/></g>
<g><path style="opacity:0.075" fill="#272629" d="M 137.5,179.5 C 136.921,182.331 135.588,184.664 133.5,186.5C 134.079,183.669 135.412,181.336 137.5,179.5 Z"/></g>
<g><path style="opacity:0.008" fill="#1c1c1e" d="M 188.5,178.5 C 188.25,180.674 187.25,182.341 185.5,183.5C 185.75,181.326 186.75,179.659 188.5,178.5 Z"/></g>
<g><path style="opacity:0.114" fill="#3e3e41" d="M 302.5,175.5 C 304.587,176.585 305.92,178.251 306.5,180.5C 304.413,179.415 303.08,177.749 302.5,175.5 Z"/></g>
<g><path style="opacity:0.027" fill="#18181b" d="M 240.5,175.5 C 242.984,177.8 244.984,180.467 246.5,183.5C 243.529,181.557 241.529,178.891 240.5,175.5 Z"/></g>
<g><path style="opacity:0.004" fill="#1c1b1d" d="M 191.5,173.5 C 191.25,175.674 190.25,177.341 188.5,178.5C 188.75,176.326 189.75,174.659 191.5,173.5 Z"/></g>
<g><path style="opacity:0.049" fill="#141316" d="M 344.5,169.5 C 346.785,170.957 348.618,172.957 350,175.5C 350.667,194.833 350.667,214.167 350,233.5C 346.927,229.939 344.094,226.272 341.5,222.5C 343.363,224.705 345.697,226.039 348.5,226.5C 349.552,210.516 349.719,194.516 349,178.5C 348.014,175.194 346.514,172.194 344.5,169.5 Z"/></g>
<g><path style="opacity:0.129" fill="#434345" d="M 297.5,169.5 C 299.914,170.911 301.581,172.911 302.5,175.5C 300.086,174.089 298.419,172.089 297.5,169.5 Z"/></g>
<g><path style="opacity:0.016" fill="#1b1b1d" d="M 194.5,168.5 C 194.25,170.674 193.25,172.341 191.5,173.5C 191.75,171.326 192.75,169.659 194.5,168.5 Z"/></g>
<g><path style="opacity:0.035" fill="#272629" d="M 233.5,166.5 C 236.535,168.879 238.869,171.879 240.5,175.5C 237.453,173.082 235.12,170.082 233.5,166.5 Z"/></g>
<g><path style="opacity:0.114" fill="#3f3e41" d="M 293.5,164.5 C 295.587,165.585 296.92,167.251 297.5,169.5C 295.413,168.415 294.08,166.749 293.5,164.5 Z"/></g>
<g><path style="opacity:0.031" fill="#232325" d="M 107.5,163.5 C 105.906,166.764 103.573,169.431 100.5,171.5C 102.094,168.236 104.427,165.569 107.5,163.5 Z"/></g>
<g><path style="opacity:0.008" fill="#19191b" d="M 341.5,165.5 C 343.262,166.262 344.262,167.596 344.5,169.5C 342.738,168.738 341.738,167.404 341.5,165.5 Z"/></g>
<g><path style="opacity:0.031" fill="#201f22" d="M 197.5,163.5 C 197.573,165.027 196.906,166.027 195.5,166.5C 195.427,164.973 196.094,163.973 197.5,163.5 Z"/></g>
<g><path style="opacity:0.016" fill="#323234" d="M 337.5,160.5 C 339.531,161.539 340.864,163.205 341.5,165.5C 339.457,164.421 338.124,162.754 337.5,160.5 Z"/></g>
<g><path style="opacity:0.122" fill="#444346" d="M 288.5,158.5 C 290.914,159.911 292.581,161.911 293.5,164.5C 291.086,163.089 289.419,161.089 288.5,158.5 Z"/></g>
<g><path style="opacity:0.012" fill="#1a191b" d="M 200.5,158.5 C 200.25,160.674 199.25,162.341 197.5,163.5C 197.75,161.326 198.75,159.659 200.5,158.5 Z"/></g>
<g><path style="opacity:0.078" fill="#1f1f21" d="M 150.5,157.5 C 146.956,165.36 142.622,172.693 137.5,179.5C 141.044,171.64 145.378,164.307 150.5,157.5 Z"/></g>
<g><path style="opacity:0.004" fill="#1c1c1e" d="M 334.5,156.5 C 336.262,157.262 337.262,158.596 337.5,160.5C 335.738,159.738 334.738,158.404 334.5,156.5 Z"/></g>
<g><path style="opacity:0.11" fill="#444446" d="M 284.5,153.5 C 286.587,154.585 287.92,156.251 288.5,158.5C 286.413,157.415 285.08,155.749 284.5,153.5 Z"/></g>
<g><path style="opacity:0.004" fill="#19191b" d="M 203.5,153.5 C 203.25,155.674 202.25,157.341 200.5,158.5C 200.75,156.326 201.75,154.659 203.5,153.5 Z"/></g>
<g><path style="opacity:0.059" fill="#1e1d20" d="M 153.5,152.5 C 153.25,154.674 152.25,156.341 150.5,157.5C 150.75,155.326 151.75,153.659 153.5,152.5 Z"/></g>
<g><path style="opacity:0.02" fill="#262527" d="M 117.5,152.5 C 116.92,154.749 115.587,156.415 113.5,157.5C 114.08,155.251 115.413,153.585 117.5,152.5 Z"/></g>
<g><path style="opacity:0.004" fill="#202023" d="M 331.5,152.5 C 333.262,153.262 334.262,154.596 334.5,156.5C 332.738,155.738 331.738,154.404 331.5,152.5 Z"/></g>
<g><path style="opacity:0.09" fill="#403f42" d="M 280.5,148.5 C 282.587,149.585 283.92,151.251 284.5,153.5C 282.413,152.415 281.08,150.749 280.5,148.5 Z"/></g>
<g><path style="opacity:0.055" fill="#212023" d="M 156.5,147.5 C 156.25,149.674 155.25,151.341 153.5,152.5C 153.75,150.326 154.75,148.659 156.5,147.5 Z"/></g>
<g><path style="opacity:0.033" fill="#19181a" d="M 206.5,148.5 C 206.25,150.674 205.25,152.341 203.5,153.5C 203.75,151.326 204.75,149.659 206.5,148.5 Z"/></g>
<g><path style="opacity:0.029" fill="#201f22" d="M 325.5,144.5 C 327.984,146.8 329.984,149.467 331.5,152.5C 328.529,150.557 326.529,147.891 325.5,144.5 Z"/></g>
<g><path style="opacity:0.067" fill="#141315" d="M 213.5,229.5 C 214.78,228.069 216.447,227.402 218.5,227.5C 219.622,200.853 219.789,174.186 219,147.5C 217.046,142.248 213.88,140.915 209.5,143.5C 209.738,141.355 210.738,139.688 212.5,138.5C 215.522,140.688 218.022,143.355 220,146.5C 220.667,174.833 220.667,203.167 220,231.5C 218.211,229.771 216.044,229.104 213.5,229.5 Z"/></g>
<g><path style="opacity:0.169" fill="#3a393c" d="M 277.5,144.5 C 279.262,145.262 280.262,146.596 280.5,148.5C 278.738,147.738 277.738,146.404 277.5,144.5 Z"/></g>
<g><path style="opacity:0.008" fill="#1d1c1e" d="M 209.5,143.5 C 209.573,145.027 208.906,146.027 207.5,146.5C 207.427,144.973 208.094,143.973 209.5,143.5 Z"/></g>
<g><path style="opacity:0.043" fill="#1e1d20" d="M 159.5,142.5 C 159.25,144.674 158.25,146.341 156.5,147.5C 156.75,145.326 157.75,143.659 159.5,142.5 Z"/></g>
<g><path style="opacity:0.098" fill="#302f32" d="M 272.5,138.5 C 274.914,139.911 276.581,141.911 277.5,144.5C 275.086,143.089 273.419,141.089 272.5,138.5 Z"/></g>
<g><path style="opacity:0.035" fill="#201f22" d="M 321.5,139.5 C 323.587,140.585 324.92,142.251 325.5,144.5C 323.413,143.415 322.08,141.749 321.5,139.5 Z"/></g>
<g><path style="opacity:0.145" fill="#323235" d="M 159.5,142.5 C 159.877,140.742 160.544,139.075 161.5,137.5C 151.731,134.798 142.065,134.964 132.5,138C 129.964,140.705 127.297,143.205 124.5,145.5C 126.739,141.916 129.406,138.583 132.5,135.5C 143.177,132.867 153.843,132.867 164.5,135.5C 163.057,138.077 161.39,140.41 159.5,142.5 Z"/></g>
<g><path style="opacity:0.012" fill="#1d1c1f" d="M 267.5,133.5 C 270.167,134.167 271.833,135.833 272.5,138.5C 270.5,137.167 268.833,135.5 267.5,133.5 Z"/></g>
<g><path style="opacity:0.014" fill="#201f22" d="M 319.5,129.5 C 330.688,128.308 342.021,128.474 353.5,130C 354,130.5 354.5,131 355,131.5C 355.5,139.159 355.666,146.826 355.5,154.5C 355.167,154.5 354.833,154.5 354.5,154.5C 354.666,147.159 354.5,139.826 354,132.5C 353.5,132 353,131.5 352.5,131C 348.514,130.501 344.514,130.334 340.5,130.5C 333.687,129.509 326.687,129.175 319.5,129.5 Z"/></g>
<g><path style="opacity:0.389" fill="#838284" d="M 319.5,129.5 C 326.687,129.175 333.687,129.509 340.5,130.5C 333.833,130.5 327.167,130.5 320.5,130.5C 320.5,131.833 320.5,133.167 320.5,134.5C 319.549,133.081 319.216,131.415 319.5,129.5 Z"/></g>
<g><path style="opacity:0.286" fill="#535355" d="M 259.5,130.5 C 215.167,130.5 170.833,130.5 126.5,130.5C 138.322,129.505 150.322,129.172 162.5,129.5C 194.99,128.64 227.324,128.973 259.5,130.5 Z"/></g>
<g><path style="opacity:0.145" fill="#2c2c2e" d="M 162.5,129.5 C 150.322,129.172 138.322,129.505 126.5,130.5C 113.167,130.5 99.8333,130.5 86.5,130.5C 97.5257,129.803 108.692,129.136 120,128.5C 134.26,128.239 148.426,128.573 162.5,129.5 Z"/></g>
<g><path style="opacity:0.038" fill="#09090c" d="M 61.5,60.5 C 63.5,60.5 65.5,60.5 67.5,60.5C 66.0813,61.4511 64.4147,61.7845 62.5,61.5C 62.5,163.5 62.5,265.5 62.5,367.5C 65.0593,367.198 67.3926,367.532 69.5,368.5C 66.8333,368.5 64.1667,368.5 61.5,368.5C 61.5,265.833 61.5,163.167 61.5,60.5 Z"/></g>
<g><path style="opacity:0.168" fill="#6d6c6f" d="M 452.5,244.5 C 453.499,306.998 453.832,369.664 453.5,432.5C 453.5,439.5 453.5,446.5 453.5,453.5C 331.999,453.833 210.666,453.5 89.5,452.5C 210.5,452.5 331.5,452.5 452.5,452.5C 452.5,383.167 452.5,313.833 452.5,244.5 Z"/></g>
<g><path style="opacity:0.39" fill="#525254" d="M 476.5,491.5 C 321.5,491.5 166.5,491.5 11.5,491.5C 11.9175,490.778 12.5842,490.278 13.5,490C 167.167,489.333 320.833,489.333 474.5,490C 475.416,490.278 476.082,490.778 476.5,491.5 Z"/></g>
</svg>
