<svg xmlns="http://www.w3.org/2000/svg" xmlns:xlink="http://www.w3.org/1999/xlink" width="500" zoomAndPan="magnify" viewBox="0 0 375 374.999991" height="500" preserveAspectRatio="xMidYMid meet" version="1.0"><defs><g/><clipPath id="832d856ad0"><path d="M 124.898438 96.140625 L 250.148438 96.140625 L 250.148438 221.390625 L 124.898438 221.390625 Z M 124.898438 96.140625 " clip-rule="nonzero"/></clipPath></defs><g clip-path="url(#832d856ad0)"><path fill="#08070b" d="M 124.898438 96.140625 L 233.414062 96.140625 L 250.089844 112.886719 L 250.089844 221.332031 L 141.574219 221.332031 L 124.898438 204.65625 Z M 133.285156 196.300781 L 225.058594 196.300781 L 225.058594 104.53125 L 133.285156 104.53125 Z M 133.285156 196.300781 " fill-opacity="1" fill-rule="nonzero"/></g><g fill="#08070b" fill-opacity="1"><g transform="translate(174.448542, 174.719021)"><g><path d="M 4.113281 -49.660156 C 3.761719 -49.660156 3.476562 -49.445312 3.476562 -49.164062 L 3.476562 -49.019531 C 3.476562 -48.738281 3.546875 -48.382812 3.972656 -47.816406 L 6.527344 -44.480469 L 6.527344 -1.84375 C 6.527344 -0.710938 6.953125 0 8.085938 0 L 18.230469 0 C 18.585938 0 18.730469 -0.210938 18.730469 -0.496094 L 18.730469 -0.851562 C 18.730469 -1.347656 18.65625 -1.632812 18.230469 -2.269531 L 7.519531 -16.316406 L 7.519531 -43.132812 L 39.089844 -1.84375 C 40.082031 -0.636719 41.003906 0 41.925781 0 L 44.621094 0 C 45.757812 0 46.183594 -0.710938 46.183594 -1.84375 L 46.183594 -47.816406 C 46.183594 -48.949219 45.757812 -49.660156 44.621094 -49.660156 L 36.535156 -49.660156 C 36.179688 -49.660156 36.039062 -49.445312 36.039062 -49.164062 L 36.039062 -48.808594 C 36.039062 -48.3125 36.039062 -47.957031 36.535156 -47.390625 L 45.191406 -36.039062 L 45.191406 -18.375 L 45.046875 -18.375 L 20.503906 -48.171875 C 19.582031 -49.234375 18.941406 -49.660156 17.878906 -49.660156 Z M 4.113281 -49.660156 "/></g></g></g><g fill="#08070b" fill-opacity="1"><g transform="translate(133.439001, 174.719021)"><g><path d="M 46.609375 -19.792969 C 46.46875 -19.933594 46.253906 -20.003906 46.042969 -20.003906 C 45.828125 -20.003906 45.617188 -19.933594 45.402344 -19.722656 L 27.242188 -0.992188 L 17.027344 -0.992188 L 44.976562 -47.816406 C 45.472656 -48.667969 45.121094 -49.660156 43.914062 -49.660156 L 7.519531 -49.660156 C 6.386719 -49.660156 5.960938 -48.949219 5.816406 -47.816406 L 4.539062 -34.550781 C 4.328125 -32.847656 4.539062 -32.5625 5.109375 -32.136719 L 5.390625 -31.925781 C 5.535156 -31.851562 5.675781 -31.78125 5.816406 -31.78125 C 6.03125 -31.78125 6.242188 -31.851562 6.386719 -32.066406 L 21.425781 -48.667969 L 31.214844 -48.667969 L 3.546875 -1.84375 C 3.121094 -0.992188 3.40625 0 4.609375 0 L 41.21875 0 C 42.351562 0 43.0625 -0.710938 43.347656 -1.84375 L 47.246094 -17.238281 C 47.601562 -18.730469 47.671875 -19.011719 47.105469 -19.4375 Z M 46.609375 -19.792969 "/></g></g></g></svg>