<?xml version="1.0" encoding="UTF-8"?>
<!DOCTYPE svg PUBLIC "-//W3C//DTD SVG 1.1//EN" "http://www.w3.org/Graphics/SVG/1.1/DTD/svg11.dtd">
<svg xmlns="http://www.w3.org/2000/svg" version="1.1" width="488px" height="492px" style="shape-rendering:geometricPrecision; text-rendering:geometricPrecision; image-rendering:optimizeQuality; fill-rule:evenodd; clip-rule:evenodd" xmlns:xlink="http://www.w3.org/1999/xlink">
<g><path style="opacity:1" fill="#08070b" d="M -0.5,-0.5 C 162.167,-0.5 324.833,-0.5 487.5,-0.5C 487.5,163.5 487.5,327.5 487.5,491.5C 324.833,491.5 162.167,491.5 -0.5,491.5C -0.5,327.5 -0.5,163.5 -0.5,-0.5 Z"/></g>
<g><path style="opacity:1" fill="#fefefe" d="M 33.5,32.5 C 155.167,32.3333 276.834,32.5 398.5,33C 416.667,51.1667 434.833,69.3333 453,87.5C 453.5,209.5 453.667,331.5 453.5,453.5C 331.833,453.667 210.166,453.5 88.5,453C 70.3333,434.833 52.1667,416.667 34,398.5C 33.5,276.5 33.3333,154.5 33.5,32.5 Z"/></g>
<g><path style="opacity:1" fill="#0a090d" d="M 61.5,60.5 C 164.167,60.5 266.833,60.5 369.5,60.5C 369.5,163.5 369.5,266.5 369.5,369.5C 266.833,369.5 164.167,369.5 61.5,369.5C 61.5,266.5 61.5,163.5 61.5,60.5 Z"/></g>
<g><path style="opacity:1" fill="#fcfcfc" d="M 227.5,157.5 C 227.217,156.711 226.717,156.044 226,155.5C 225.17,185.003 225.336,214.336 226.5,243.5C 238.501,259.006 250.335,274.673 262,290.5C 262.497,292.81 262.663,295.143 262.5,297.5C 249.496,297.667 236.496,297.5 223.5,297C 222.619,296.292 221.953,295.458 221.5,294.5C 221.667,276.497 221.5,258.497 221,240.5C 219.991,242.025 219.491,243.692 219.5,245.5C 215.496,261.851 211.329,278.184 207,294.5C 206.167,295.333 205.333,296.167 204.5,297C 160.929,297.83 117.429,297.663 74,296.5C 73.3333,294.167 73.3333,291.833 74,289.5C 104.178,238.472 134.345,187.472 164.5,136.5C 165.043,136.44 165.376,136.107 165.5,135.5C 154.674,134.177 144.007,134.177 133.5,135.5C 116.556,154.447 99.2225,173.114 81.5,191.5C 77.047,189.716 75.3804,186.383 76.5,181.5C 77.8019,166.148 79.3019,150.814 81,135.5C 81.7065,133.919 82.5399,132.419 83.5,131C 143.5,130.333 203.5,130.333 263.5,131C 266.63,133.128 269.463,135.628 272,138.5C 297.956,170.791 324.289,202.791 351,234.5C 351.667,215.167 351.667,195.833 351,176.5C 340.758,163.68 330.758,150.68 321,137.5C 320.503,135.19 320.337,132.857 320.5,130.5C 331.172,130.333 341.839,130.5 352.5,131C 353.667,131.5 354.5,132.333 355,133.5C 355.667,187.167 355.667,240.833 355,294.5C 354.626,295.416 354.126,296.25 353.5,297C 347.833,297.667 342.167,297.667 336.5,297C 334.04,295.542 331.873,293.709 330,291.5C 296.056,246.585 261.889,201.918 227.5,157.5 Z"/></g>
<g><path style="opacity:1" fill="#3e3e41" d="M 133.5,135.5 C 144.007,134.177 154.674,134.177 165.5,135.5C 165.376,136.107 165.043,136.44 164.5,136.5C 154.347,135.506 144.014,135.172 133.5,135.5 Z"/></g>
<g><path style="opacity:1" fill="#0c0b0e" d="M 212.5,138.5 C 215.78,141.043 218.613,144.043 221,147.5C 221.667,175.833 221.667,204.167 221,232.5C 219.475,229.913 217.308,229.08 214.5,230C 194.167,251 173.833,272 153.5,293C 142.485,293.832 131.485,293.666 120.5,292.5C 151.178,241.139 181.845,189.806 212.5,138.5 Z"/></g>
<g><path style="opacity:1" fill="#2d2d30" d="M 227.5,157.5 C 226.502,185.995 226.169,214.662 226.5,243.5C 225.336,214.336 225.17,185.003 226,155.5C 226.717,156.044 227.217,156.711 227.5,157.5 Z"/></g>
<g><path style="opacity:1" fill="#666668" d="M 221.5,294.5 C 220.833,278.167 220.167,261.833 219.5,245.5C 219.491,243.692 219.991,242.025 221,240.5C 221.5,258.497 221.667,276.497 221.5,294.5 Z"/></g>
</svg>
