<?xml version="1.0" encoding="UTF-8"?>
<!DOCTYPE svg PUBLIC "-//W3C//DTD SVG 1.1//EN" "http://www.w3.org/Graphics/SVG/1.1/DTD/svg11.dtd">
<svg xmlns="http://www.w3.org/2000/svg" version="1.1" width="482px" height="478px" style="shape-rendering:geometricPrecision; text-rendering:geometricPrecision; image-rendering:optimizeQuality; fill-rule:evenodd; clip-rule:evenodd" xmlns:xlink="http://www.w3.org/1999/xlink">
<g><path style="opacity:1" fill="#fefefe" d="M -0.5,-0.5 C 160.167,-0.5 320.833,-0.5 481.5,-0.5C 481.5,158.833 481.5,318.167 481.5,477.5C 320.833,477.5 160.167,477.5 -0.5,477.5C -0.5,318.167 -0.5,158.833 -0.5,-0.5 Z"/></g>
<g><path style="opacity:1" fill="#09080c" d="M 27.5,26.5 C 149.167,26.3333 270.834,26.5 392.5,27C 410.667,45.1667 428.833,63.3333 447,81.5C 447.5,203.5 447.667,325.5 447.5,447.5C 325.833,447.667 204.166,447.5 82.5,447C 63.9712,428.805 45.8045,410.305 28,391.5C 27.5,269.834 27.3333,148.167 27.5,26.5 Z"/></g>
<g><path style="opacity:1" fill="#fdfdfd" d="M 55.5,54.5 C 158.167,54.5 260.833,54.5 363.5,54.5C 363.5,157.5 363.5,260.5 363.5,363.5C 260.833,363.5 158.167,363.5 55.5,363.5C 55.5,260.5 55.5,157.5 55.5,54.5 Z"/></g>
<g><path style="opacity:1" fill="#0b0a0d" d="M 221.5,151.5 C 221.217,150.711 220.717,150.044 220,149.5C 219.17,179.003 219.336,208.336 220.5,237.5C 232.324,253.137 244.158,268.804 256,284.5C 256.497,286.81 256.663,289.143 256.5,291.5C 243.496,291.667 230.496,291.5 217.5,291C 216.934,290.005 216.267,289.172 215.5,288.5C 215.667,269.497 215.5,250.497 215,231.5C 214.433,234.168 213.933,236.834 213.5,239.5C 209.36,255.087 205.527,270.754 202,286.5C 201.052,288.57 199.552,290.07 197.5,291C 154.262,291.83 111.096,291.663 68,290.5C 67.1954,286.091 68.1954,282.091 71,278.5C 100.43,229.304 129.597,179.971 158.5,130.5C 159.043,130.44 159.376,130.107 159.5,129.5C 148.674,128.177 138.007,128.177 127.5,129.5C 110.556,148.447 93.2225,167.114 75.5,185.5C 71.047,183.716 69.3804,180.383 70.5,175.5C 71.8019,160.148 73.3019,144.814 75,129.5C 75.5743,127.508 76.741,126.008 78.5,125C 138.167,124.333 197.833,124.333 257.5,125C 260.295,126.793 262.795,128.96 265,131.5C 291.289,164.125 317.956,196.458 345,228.5C 345.667,209.167 345.667,189.833 345,170.5C 335.242,157.32 325.242,144.32 315,131.5C 314.503,129.19 314.337,126.857 314.5,124.5C 325.172,124.333 335.839,124.5 346.5,125C 347.667,125.5 348.5,126.333 349,127.5C 349.667,181.167 349.667,234.833 349,288.5C 348.5,289.667 347.667,290.5 346.5,291C 341.167,291.667 335.833,291.667 330.5,291C 328.376,289.878 326.543,288.378 325,286.5C 290.636,241.315 256.136,196.315 221.5,151.5 Z"/></g>
<g><path style="opacity:1" fill="#c8c7c8" d="M 127.5,129.5 C 138.007,128.177 148.674,128.177 159.5,129.5C 159.376,130.107 159.043,130.44 158.5,130.5C 148.347,129.506 138.014,129.172 127.5,129.5 Z"/></g>
<g><path style="opacity:1" fill="#fbfbfb" d="M 206.5,132.5 C 209.78,135.043 212.613,138.043 215,141.5C 215.667,169.833 215.667,198.167 215,226.5C 213.475,223.913 211.308,223.08 208.5,224C 188.167,245 167.833,266 147.5,287C 136.485,287.832 125.485,287.666 114.5,286.5C 145.178,235.139 175.845,183.806 206.5,132.5 Z"/></g>
<g><path style="opacity:1" fill="#d9d8d9" d="M 221.5,151.5 C 220.502,179.995 220.169,208.662 220.5,237.5C 219.336,208.336 219.17,179.003 220,149.5C 220.717,150.044 221.217,150.711 221.5,151.5 Z"/></g>
<g><path style="opacity:1" fill="#9c9b9d" d="M 215.5,288.5 C 214.833,272.167 214.167,255.833 213.5,239.5C 213.933,236.834 214.433,234.168 215,231.5C 215.5,250.497 215.667,269.497 215.5,288.5 Z"/></g>
</svg>
